Coordinates
version=1
nRows=10
nColumns=40
inDegrees=yes

Units are S.I. units (second, meters, Newtons, ...)
Angles are in degrees.

endheader
time	pelvis_tilt	pelvis_list	pelvis_rotation	pelvis_tx	pelvis_ty	pelvis_tz	hip_flexion_r	hip_adduction_r	hip_rotation_r	knee_angle_r	knee_angle_r_beta	ankle_angle_r	subtalar_angle_r	mtp_angle_r	hip_flexion_l	hip_adduction_l	hip_rotation_l	knee_angle_l	knee_angle_l_beta	ankle_angle_l	subtalar_angle_l	mtp_angle_l	lumbar_extension	lumbar_bending	lumbar_rotation	arm_flex_r	arm_add_r	arm_rot_r	elbow_flex_r	pro_sup_r	wrist_flex_r	wrist_dev_r	arm_flex_l	arm_add_l	arm_rot_l	elbow_flex_l	pro_sup_l	wrist_flex_l	wrist_dev_l
     55.77000000	     -3.24353092	     -3.55720169	      0.35644365	      0.93663380	      0.91699335	      0.38864034	     15.82733515	     -9.83393559	    -10.53020524	     61.57574104	     61.57574104	      5.13473488	    -19.56851531	     19.70959740	     18.34421950	      0.27266704	      0.30070925	     31.85252300	     31.85252300	     19.45010742	    -17.67533809	      8.96858776	    -10.02072083	      4.25534229	      3.05436062	     35.01247272	    -12.50689994	     -8.63522624	     36.12620285	     45.85679882	      0.00000000	      0.00000000	      9.98180289	    -11.82398602	     18.13681623	     32.09885193	     45.29759519	      0.00000000	      0.00000000
     55.79050000	     -2.90316233	     -3.48977963	     -0.41214398	      0.93583670	      0.91464964	      0.38707563	     17.31805955	     -9.76364892	     -9.50728104	     63.28440309	     63.28440309	      6.54995560	    -19.57210524	     19.44064519	     18.09843686	      0.36466059	     -0.19336019	     32.98672531	     32.98672531	     20.37625906	    -18.02812041	      8.79474134	    -10.21540947	      4.56402246	      2.87309076	     31.55605563	    -12.42822961	     -8.58887573	     34.25971576	     45.90648415	      0.00000000	      0.00000000	     11.20875008	    -12.00195423	     17.88667191	     32.94375495	     45.35035597	      0.00000000	      0.00000000
     55.81100000	     -2.52519109	     -3.46675213	     -1.20032906	      0.93503858	      0.91261881	      0.38561381	     18.75364258	     -9.56987392	     -8.51732071	     64.71361057	     64.71361057	      7.97972216	    -19.57408803	     19.51979486	     17.72594027	      0.41085270	     -0.70666145	     33.98949481	     33.98949481	     21.36590871	    -18.31041739	      8.94695483	    -10.48703384	      4.91984890	      2.92788526	     27.99888641	    -12.58967487	     -8.55028827	     31.97796362	     45.97481924	      0.00000000	      0.00000000	     12.55732353	    -12.18481972	     17.53235379	     34.05648473	     45.41911625	      0.00000000	      0.00000000
     55.83150000	     -2.12116731	     -3.48140630	     -1.97598668	      0.93424599	      0.91112988	      0.38441444	     20.08507871	     -9.25287169	     -7.61158555	     65.73030079	     65.73030079	      9.43506065	    -19.57182423	     20.01717024	     17.19472320	      0.42401421	     -1.19255553	     34.76557846	     34.76557846	     22.42857503	    -18.48732390	      9.58557479	    -10.83098095	      5.30262489	      2.97455313	     24.54077633	    -12.75710582	     -8.54833740	     29.34612574	     46.06540493	      0.00000000	      0.00000000	     13.89751602	    -12.45768873	     17.03276435	     35.38513485	     45.50653923	      0.00000000	      0.00000000
     55.85200000	     -1.84843146	     -3.45174848	     -2.75882844	      0.93333095	      0.91007389	      0.38348788	     21.48990005	     -8.94824248	     -6.79664618	     66.25644809	     66.25644809	     10.61629609	    -19.56528867	     20.05926344	     16.65212843	      0.44795078	     -1.79029883	     35.22007805	     35.22007805	     23.20280266	    -18.60015927	      9.89295573	    -11.04133072	      5.63363584	      2.79507890	     21.07765287	    -12.84106097	     -8.58816529	     27.21524012	     46.13687264	      0.00000000	      0.00000000	     15.20768244	    -12.87607117	     16.51591189	     36.55034469	     45.59138510	      0.00000000	      0.00000000
     55.87250000	     -1.59435959	     -3.49188981	     -3.49963135	      0.93233531	      0.90987307	      0.38299818	     22.77331721	     -8.48185169	     -6.10148971	     66.17762265	     66.17762265	     11.83143301	    -19.54686013	     20.78543594	     15.98815606	      0.42064779	     -2.25669066	     35.39862341	     35.39862341	     24.19103692	    -18.62073691	     11.23794145	    -11.29009787	      5.99384202	      2.34021081	     18.06010815	    -12.74736491	     -9.06338743	     24.56440008	     46.30260223	      0.00000000	      0.00000000	     16.06833688	    -13.52292922	     15.04379737	     38.64041493	     45.78805584	      0.00000000	      0.00000000
     55.89300000	     -1.45388698	     -3.54072468	     -4.23680073	      0.93122881	      0.91038718	      0.38298788	     23.99196525	     -7.97400890	     -5.55818410	     65.39286690	     65.39286690	     12.55032371	    -19.52636759	     20.36985224	     15.20409660	      0.31410931	     -2.86763574	     35.05678565	     35.05678565	     24.43056454	    -18.64343351	     11.23510456	    -11.44207124	      6.31267446	      2.27490827	     14.48663709	    -12.91493703	     -9.20100303	     22.99214029	     46.36076729	      0.00000000	      0.00000000	     17.46982902	    -14.03294934	     14.35871747	     39.86889235	     45.88803158	      0.00000000	      0.00000000
     55.91350000	     -1.38815356	     -3.63159948	     -4.93929650	      0.92993109	      0.91171069	      0.38346420	     25.09347256	     -7.35328858	     -5.12080866	     63.90750403	     63.90750403	     13.03372836	    -19.48543031	     19.86547829	     14.32337145	      0.14731680	     -3.45263300	     34.33749696	     34.33749696	     24.48636249	    -18.61215894	     11.26856751	    -11.54458296	      6.65233525	      2.16109156	     10.95519555	    -13.05448480	     -9.40723992	     21.77729370	     46.41117310	      0.00000000	      0.00000000	     18.77877293	    -14.65919465	     13.48130398	     41.34829528	     46.00686449	      0.00000000	      0.00000000
     55.93400000	     -1.41587656	     -3.76782917	     -5.62032571	      0.92846785	      0.91372905	      0.38448710	     26.06359536	     -6.61077479	     -4.76751196	     61.71259969	     61.71259969	     13.22330846	    -19.41982523	     19.11765329	     13.36547161	     -0.09618370	     -4.04558515	     33.24976334	     33.24976334	     24.32707949	    -18.54233936	     11.27751229	    -11.60117230	      6.97935189	      2.00623023	      7.43022014	    -13.17193645	     -9.67246179	     20.91527812	     46.45186594	      0.00000000	      0.00000000	     20.02142548	    -15.37128444	     12.41158912	     43.05517339	     46.14329711	      0.00000000	      0.00000000
     55.95450000	     -1.67626641	     -3.94975389	     -6.24243868	      0.92670321	      0.91603663	      0.38593301	     27.06683437	     -5.74988876	     -4.50031322	     58.89509198	     58.89509198	     13.25422585	    -19.31067144	     18.60977860	     12.57509587	     -0.42233468	     -4.59502131	     31.95842973	     31.95842973	     24.06148809	    -18.35127692	     11.39823569	    -11.38718060	      7.38367029	      1.45513007	      4.30195291	    -13.11780138	     -9.86198225	     20.16735801	     46.47720922	      0.00000000	      0.00000000	     21.08456671	    -16.34130310	     11.58677062	     44.19569062	     46.24508971	      0.00000000	      0.00000000
